<svg width="143" height="108" viewBox="0 0 143 108" fill="none" xmlns="http://www.w3.org/2000/svg">
<path d="M1 62.4322V11C1 6.58172 4.58172 3 9 3H63C67.4183 3 71 6.58173 71 11V47.2055C71 50.7876 68.6188 53.9331 65.1712 54.9052L11.1711 70.132C6.06668 71.5713 1 67.7357 1 62.4322Z" fill="#111111"/>
<path d="M4.44 103L1.32 89H6.16L8.68 100.86H5.6L12.96 89H17.8L9.08 103H4.44ZM13.4419 103L22.3619 89H27.0019L30.3219 103H25.6219L23.3619 91.18H25.2019L18.4219 103H13.4419ZM17.5619 100.56L19.4419 97.16H25.8819L26.4019 100.56H17.5619ZM31.0752 103L33.8752 89H38.5952L36.5352 99.34H42.8552L42.1152 103H31.0752ZM43.4189 103L46.2189 89H50.9389L48.8789 99.34H55.1989L54.4589 103H43.4189ZM62.725 103.32C61.2717 103.32 60.0583 103.047 59.085 102.5C58.1117 101.94 57.4183 101.167 57.005 100.18C56.605 99.18 56.5383 98.02 56.805 96.7L58.345 89H63.065L61.545 96.62C61.4517 97.1133 61.4183 97.54 61.445 97.9C61.4717 98.26 61.5583 98.56 61.705 98.8C61.865 99.04 62.0783 99.22 62.345 99.34C62.6117 99.4467 62.9317 99.5 63.305 99.5C63.7583 99.5 64.145 99.4067 64.465 99.22C64.7983 99.0333 65.0717 98.7267 65.285 98.3C65.5117 97.8733 65.6917 97.3133 65.825 96.62L67.345 89H71.985L70.405 96.9C69.9917 98.9933 69.145 100.587 67.865 101.68C66.585 102.773 64.8717 103.32 62.725 103.32ZM75.7486 103L72.6286 89H77.4686L79.9886 100.86H76.9086L84.2686 89H89.1086L80.3886 103H75.7486ZM92.8583 94.2H99.0983L98.4183 97.6H92.1783L92.8583 94.2ZM92.1183 99.44H99.1383L98.4183 103H86.7783L89.5783 89H100.958L100.238 92.56H93.4983L92.1183 99.44ZM100.235 103L103.035 89H109.315C111.169 89 112.602 89.4067 113.615 90.22C114.629 91.02 115.135 92.1467 115.135 93.6C115.135 94.7733 114.842 95.8 114.255 96.68C113.682 97.56 112.862 98.2467 111.795 98.74C110.742 99.2333 109.495 99.48 108.055 99.48H103.535L106.055 97.5L104.955 103H100.235ZM108.795 103L105.915 97.9H110.775L113.695 103H108.795ZM105.935 98.06L104.275 95.92H108.295C108.949 95.92 109.455 95.76 109.815 95.44C110.175 95.1067 110.355 94.6467 110.355 94.06C110.355 93.5533 110.195 93.1933 109.875 92.98C109.569 92.7533 109.142 92.64 108.595 92.64H104.935L107.455 90.44L105.935 98.06ZM120.698 103.32C119.871 103.32 119.078 103.26 118.318 103.14C117.558 103.02 116.864 102.853 116.238 102.64C115.624 102.413 115.091 102.167 114.638 101.9L116.458 98.42C116.978 98.7133 117.498 98.96 118.018 99.16C118.551 99.3467 119.078 99.4867 119.598 99.58C120.131 99.6733 120.658 99.72 121.178 99.72C121.591 99.72 121.931 99.6867 122.198 99.62C122.478 99.5533 122.684 99.46 122.818 99.34C122.964 99.2067 123.038 99.06 123.038 98.9C123.038 98.6867 122.918 98.5133 122.678 98.38C122.438 98.2467 122.118 98.1267 121.718 98.02C121.331 97.9133 120.898 97.8067 120.418 97.7C119.951 97.58 119.478 97.4333 118.998 97.26C118.518 97.0733 118.078 96.84 117.678 96.56C117.291 96.28 116.978 95.9267 116.738 95.5C116.498 95.0733 116.378 94.5533 116.378 93.94C116.378 92.8733 116.658 91.9467 117.218 91.16C117.791 90.3733 118.604 89.7667 119.658 89.34C120.724 88.9 121.991 88.68 123.458 88.68C124.498 88.68 125.464 88.7867 126.358 89C127.264 89.2 128.044 89.4933 128.698 89.88L126.998 93.32C126.438 92.9733 125.824 92.7133 125.158 92.54C124.504 92.3667 123.838 92.28 123.158 92.28C122.704 92.28 122.324 92.3267 122.018 92.42C121.711 92.5 121.478 92.6133 121.318 92.76C121.171 92.9067 121.098 93.06 121.098 93.22C121.098 93.4333 121.218 93.6133 121.458 93.76C121.698 93.8933 122.018 94.0133 122.418 94.12C122.818 94.2133 123.251 94.32 123.718 94.44C124.198 94.5467 124.671 94.6867 125.138 94.86C125.618 95.02 126.058 95.24 126.458 95.52C126.858 95.7867 127.178 96.1333 127.418 96.56C127.658 96.9733 127.778 97.4867 127.778 98.1C127.778 99.14 127.491 100.053 126.918 100.84C126.344 101.613 125.524 102.22 124.458 102.66C123.404 103.1 122.151 103.32 120.698 103.32ZM134.362 94.2H140.602L139.922 97.6H133.682L134.362 94.2ZM133.622 99.44H140.642L139.922 103H128.282L131.082 89H142.462L141.742 92.56H135.002L133.622 99.44Z" fill="#111111"/>
<path d="M80.436 14L82.018 6.048H78.882L79.26 4.2H87.8L87.422 6.048H84.3L82.704 14H80.436ZM87.0603 14L89.0203 4.2H90.8683L93.6543 11.144L92.6743 11.13L98.1063 4.2H100.052L98.1063 14H95.9783L97.2803 7.434H97.7143L93.3883 12.964H92.3803L90.0703 7.42L90.4903 7.462L89.1883 14H87.0603Z" fill="#111111"/>
</svg>
